<svg width="79" height="47" viewBox="0 0 79 47" fill="none" xmlns="http://www.w3.org/2000/svg">
<g clip-path="url(#clip0_20_216)">
<path d="M0 24.1024L12.8201 2.63306L25.5465 24.1024L12.8201 31.9181L0 24.1024Z" fill="#E4E4E4"/>
<path d="M12.8201 34.2722L0 26.4565L12.8201 44.6303L25.5465 26.4565L12.8201 34.2722Z" fill="#E4E4E4"/>
<path d="M34.7898 37.126V32.347H40.3032V14.7714H34.7898V10.0319H52.3465V14.7714H46.8332V32.347H52.3465V37.126H34.7898ZM57.3754 37.126V10.0319H67.6201C69.1581 10.0319 70.5788 10.2426 71.8822 10.6639C73.2116 11.0851 74.3586 11.7171 75.3231 12.5597C76.2876 13.4022 77.0436 14.4555 77.591 15.7193C78.1385 16.9569 78.4122 18.3919 78.4122 20.0244V27.1336C78.4122 28.7398 78.1385 30.1748 77.591 31.4386C77.0436 32.6762 76.2876 33.7162 75.3231 34.5588C74.3586 35.4014 73.2116 36.0465 71.8822 36.4941C70.5788 36.9154 69.1581 37.126 67.6201 37.126H57.3754ZM63.9445 32.0706H67.0726C68.0372 32.0706 68.8713 31.9258 69.5752 31.6361C70.279 31.3465 70.8134 30.8725 71.1783 30.2143C71.5694 29.556 71.7649 28.6476 71.7649 27.4891V19.6294C71.7649 18.4709 71.5694 17.5625 71.1783 16.9042C70.8134 16.2196 70.279 15.7325 69.5752 15.4428C68.8713 15.1532 68.0372 15.0084 67.0726 15.0084H63.9445V32.0706Z" fill="#E4E4E4"/>
</g>
<defs>
<clipPath id="clip0_20_216">
<rect width="78.725" height="47" fill="white"/>
</clipPath>
</defs>
</svg>
