<svg width="102" height="102" viewBox="0 0 102 102" fill="none" xmlns="http://www.w3.org/2000/svg">
<rect width="102" height="102" rx="8" fill="#333333"/>
<path d="M16 51.4721L27.979 31.6113L39.8705 51.4721L27.979 58.7021L16 51.4721Z" fill="#E4E4E4"/>
<path d="M27.979 60.8804L16 53.6504L27.979 70.4624L39.8705 53.6504L27.979 60.8804Z" fill="#E4E4E4"/>
<path d="M46.4912 63.1368V58.8714H51.4617V43.1843H46.4912V38.9541H62.3193V43.1843H57.3488V58.8714H62.3193V63.1368H46.4912ZM66.853 63.1368V38.9541H76.0889C77.4755 38.9541 78.7563 39.1421 79.9314 39.5181C81.1299 39.8941 82.164 40.4581 83.0335 41.2102C83.903 41.9623 84.5846 42.9023 85.0781 44.0304C85.5717 45.135 85.8184 46.4157 85.8184 47.8728V54.2181C85.8184 55.6517 85.5717 56.9325 85.0781 58.0606C84.5846 59.1652 83.903 60.0934 83.0335 60.8455C82.164 61.5975 81.1299 62.1733 79.9314 62.5728C78.7563 62.9488 77.4755 63.1368 76.0889 63.1368H66.853ZM72.7753 58.6246H75.5954C76.4649 58.6246 77.217 58.4954 77.8515 58.2368C78.486 57.9783 78.9678 57.5553 79.2968 56.9678C79.6494 56.3803 79.8256 55.5695 79.8256 54.5354V47.5203C79.8256 46.4862 79.6494 45.6754 79.2968 45.0879C78.9678 44.4769 78.486 44.0421 77.8515 43.7836C77.217 43.5251 76.4649 43.3958 75.5954 43.3958H72.7753V58.6246Z" fill="#E4E4E4"/>
</svg>
