<svg width="168" height="168" viewBox="0 0 168 168" fill="none" xmlns="http://www.w3.org/2000/svg">
<rect width="168" height="168" rx="84" fill="#333333"/>
<g clip-path="url(#clip0_378_276)">
<path d="M26.3525 84.7782L46.0826 52.0664L65.6687 84.7782L46.0826 96.6866L26.3525 84.7782Z" fill="#E4E4E4"/>
<path d="M46.0826 100.274L26.3525 88.3652L46.0826 116.056L65.6687 88.3652L46.0826 100.274Z" fill="#E4E4E4"/>
<path d="M76.5742 103.991V96.9651H84.7609V71.1276H76.5742V64.1602H102.644V71.1276H94.4572V96.9651H102.644V103.991H76.5742ZM110.111 103.991V64.1602H125.323C127.607 64.1602 129.717 64.4698 131.652 65.0891C133.626 65.7085 135.329 66.6374 136.762 67.8761C138.194 69.1148 139.316 70.6631 140.129 72.5211C140.942 74.3404 141.348 76.4498 141.348 78.8498V89.3009C141.348 91.662 140.942 93.7717 140.129 95.6296C139.316 97.449 138.194 98.9778 136.762 100.217C135.329 101.455 133.626 102.403 131.652 103.062C129.717 103.681 127.607 103.991 125.323 103.991H110.111ZM119.866 96.5586H124.511C125.943 96.5586 127.181 96.3458 128.226 95.92C129.272 95.4941 130.065 94.7974 130.607 93.8297C131.188 92.8621 131.478 91.5267 131.478 89.8235V78.2692C131.478 76.566 131.188 75.2305 130.607 74.2629C130.065 73.2564 129.272 72.5405 128.226 72.1146C127.181 71.6888 125.943 71.4759 124.511 71.4759H119.866V96.5586Z" fill="#E4E4E4"/>
</g>
<path d="M8 98.2834L15.955 96.4446L17.2115 102.05L15.6912 102.178L14.9152 98.7162L13.2221 99.1076L13.948 102.346L12.5101 102.678L11.7842 99.4399L9.9636 99.8608L10.7476 103.358L9.26177 103.912L8 98.2834Z" fill="#E4E4E4"/>
<path d="M11.8458 112.164C11.5605 111.387 11.4972 110.719 11.656 110.161C11.8175 109.61 12.2845 109.188 13.0571 108.895L15.4641 107.984L14.9114 106.479L16.1929 105.994L16.7705 107.567L18.8154 107.501L19.2143 108.587L17.398 109.275L18.2831 111.685L17.0016 112.171L16.1165 109.761L13.8767 110.609C13.6761 110.685 13.5168 110.792 13.3987 110.931C13.288 111.068 13.2251 111.242 13.2098 111.454C13.2048 111.671 13.2591 111.934 13.3727 112.243C13.453 112.462 13.5566 112.663 13.6834 112.847C13.8102 113.031 13.9357 113.177 14.0598 113.285L12.8006 113.762C12.6218 113.597 12.4482 113.367 12.2799 113.069C12.1041 112.775 11.9594 112.473 11.8458 112.164Z" fill="#E4E4E4"/>
<path d="M14.5959 118.296L22.1299 114.164L23.0173 115.832L20.1711 117.393C20.5202 117.439 20.8254 117.556 21.0866 117.742C21.3585 117.931 21.5849 118.196 21.7658 118.536C21.9504 118.883 22.0427 119.226 22.0426 119.565C22.0425 119.903 21.9476 120.216 21.7579 120.503C21.5789 120.793 21.301 121.042 20.9243 121.249L17.241 123.269L16.3537 121.601L19.723 119.752C20.0091 119.596 20.1911 119.404 20.2692 119.178C20.3473 118.953 20.3205 118.716 20.1886 118.468C20.1019 118.305 19.9863 118.181 19.8417 118.095C19.6972 118.01 19.5398 117.968 19.3696 117.97C19.1994 117.972 19.027 118.02 18.8526 118.116L15.4832 119.964L14.5959 118.296Z" fill="#E4E4E4"/>
<path d="M21.3935 129.812C20.9774 129.233 20.7299 128.684 20.6509 128.164C20.583 127.646 20.6661 127.161 20.9003 126.708C21.1391 126.262 21.5051 125.856 21.9982 125.491L22.2575 125.299C22.7699 124.919 23.2801 124.7 23.7883 124.642C24.3076 124.586 24.798 124.681 25.2595 124.927C25.7321 125.175 26.1577 125.563 26.5364 126.089C26.8869 126.577 27.0988 127.063 27.1719 127.547C27.2561 128.033 27.2058 128.489 27.0212 128.915C26.8476 129.342 26.5399 129.72 26.098 130.047L25.4064 130.56L23.0154 127.234L22.7561 127.426C22.4038 127.687 22.2044 127.969 22.1577 128.273C22.111 128.577 22.1905 128.872 22.3961 129.158C22.6252 129.477 22.8695 129.659 23.1289 129.706C23.3948 129.749 23.6847 129.653 23.9985 129.421L25.0221 130.845C24.6251 131.139 24.2132 131.29 23.7865 131.297C23.3645 131.311 22.949 131.19 22.5399 130.935C22.1356 130.687 21.7534 130.312 21.3935 129.812ZM23.8512 126.614L25.1623 128.438L25.2872 128.346C25.4665 128.213 25.5954 128.058 25.6738 127.88C25.7586 127.697 25.7903 127.509 25.769 127.316C25.7523 127.129 25.6809 126.948 25.5547 126.772C25.4192 126.583 25.2575 126.454 25.0696 126.384C24.8882 126.309 24.6958 126.287 24.4924 126.318C24.2891 126.35 24.1009 126.429 23.928 126.557L23.8512 126.614Z" fill="#E4E4E4"/>
<path d="M27.0219 136.608L30.4063 133.283L29.5296 132.363L30.5125 131.397L32.4477 133.428L31.9501 134.034C32.2206 133.948 32.5122 133.947 32.8248 134.032C33.1432 134.111 33.4457 134.301 33.7324 134.602C34.1128 135.001 34.2938 135.423 34.2754 135.867C34.2626 136.316 34.0681 136.726 33.6921 137.095C33.6009 137.185 33.507 137.272 33.4103 137.355C33.3248 137.439 33.2254 137.52 33.112 137.598L32.0369 136.47L32.2676 136.243C32.3702 136.142 32.4421 136.027 32.4835 135.896C32.5361 135.766 32.5466 135.633 32.5152 135.496C32.4893 135.364 32.4184 135.238 32.3027 135.116C32.1869 134.995 32.0563 134.921 31.9109 134.896C31.7655 134.871 31.6195 134.886 31.4729 134.94C31.3319 134.989 31.2016 135.072 31.0819 135.19L28.2872 137.936L27.0219 136.608ZM26.1287 135.671L27.0944 134.722L30.8492 138.662L29.8834 139.611L26.1287 135.671Z" fill="#E4E4E4"/>
<path d="M35.8748 145.066C35.3212 144.621 34.9378 144.159 34.7245 143.68C34.5224 143.2 34.4744 142.71 34.5805 142.21C34.6928 141.715 34.9382 141.225 35.3168 140.738L35.5159 140.483C35.9093 139.977 36.3431 139.628 36.8175 139.434C37.303 139.238 37.8005 139.196 38.3101 139.308C38.8308 139.418 39.3431 139.675 39.8469 140.08C40.3134 140.454 40.6458 140.865 40.844 141.311C41.0533 141.756 41.1253 142.209 41.0598 142.67C41.0055 143.129 40.8087 143.576 40.4695 144.012L39.9385 144.694L36.7569 142.141L36.5578 142.396C36.2874 142.744 36.1697 143.07 36.2049 143.376C36.2401 143.681 36.3946 143.943 36.6682 144.163C36.973 144.408 37.2566 144.517 37.519 144.492C37.7863 144.46 38.0404 144.29 38.2813 143.98L39.6435 145.073C39.3386 145.465 38.9817 145.722 38.5725 145.846C38.1696 145.974 37.7374 145.971 37.276 145.836C36.8208 145.707 36.3537 145.45 35.8748 145.066ZM37.3985 141.316L39.1433 142.717L39.2392 142.594C39.3768 142.417 39.46 142.232 39.4886 142.04C39.5221 141.841 39.503 141.651 39.4314 141.47C39.366 141.295 39.2493 141.139 39.0814 141.005C38.901 140.86 38.7111 140.779 38.5116 140.763C38.3171 140.74 38.126 140.771 37.9382 140.857C37.7505 140.942 37.5903 141.07 37.4575 141.241L37.3985 141.316Z" fill="#E4E4E4"/>
<path d="M43.8948 150.706C43.3403 150.377 42.9867 149.962 42.834 149.462C42.6882 148.965 42.7912 148.411 43.1431 147.799L45.2125 144.201L46.835 145.163L44.9096 148.511C44.7337 148.817 44.6756 149.085 44.7354 149.317C44.806 149.545 44.9577 149.728 45.1905 149.866C45.3548 149.964 45.5186 150.014 45.6818 150.018C45.8559 150.019 46.0171 149.97 46.1656 149.871C46.3208 149.777 46.4525 149.636 46.5604 149.448L48.4679 146.132L50.0802 147.088L47.7289 151.176C47.6689 151.28 47.6454 151.369 47.6585 151.442C47.6825 151.512 47.7287 151.568 47.7971 151.608C47.845 151.637 47.895 151.662 47.9469 151.683C48.0028 151.698 48.0682 151.704 48.1429 151.701L47.6091 152.629C47.4841 152.639 47.3226 152.609 47.1246 152.538C46.9295 152.478 46.7531 152.402 46.5957 152.308C46.315 152.142 46.1173 151.982 46.0027 151.831C45.8881 151.679 45.8299 151.532 45.8283 151.391C45.8375 151.248 45.8664 151.102 45.915 150.953C45.75 151.033 45.5691 151.084 45.3722 151.107C45.1821 151.134 44.9664 151.118 44.725 151.059C44.4796 151.006 44.2029 150.889 43.8948 150.706Z" fill="#E4E4E4"/>
<path d="M51.014 154.49L53.3702 148.802L54.2911 149.195L54.1892 149.846C54.413 149.679 54.6518 149.581 54.9056 149.549C55.1625 149.51 55.4079 149.541 55.6417 149.641C55.9122 149.756 56.111 149.92 56.2384 150.132C56.3762 150.339 56.4407 150.567 56.4319 150.817C56.6942 150.641 56.947 150.539 57.1904 150.512C57.4369 150.478 57.6881 150.515 57.9439 150.624C58.3532 150.799 58.6011 151.062 58.6878 151.414C58.7775 151.758 58.7317 152.149 58.5504 152.586L56.7475 156.939L55.3662 156.349L57.0123 152.375C57.1506 152.041 57.0919 151.819 56.8361 151.71C56.7192 151.66 56.6021 151.663 56.4848 151.717C56.3675 151.772 56.2766 151.877 56.212 152.033L54.5659 156.007L53.2066 155.427L54.8527 151.453C54.991 151.119 54.9286 150.895 54.6655 150.783C54.5413 150.73 54.4205 150.731 54.3032 150.785C54.1932 150.843 54.106 150.95 54.0414 151.106L52.3953 155.08L51.014 154.49Z" fill="#E4E4E4"/>
<path d="M71.312 160.87L71.4976 159.421L73.1604 159.64L73.8431 154.311L72.1802 154.091L72.3643 152.654L77.6596 153.354L77.4755 154.791L75.8126 154.571L75.13 159.9L76.7928 160.12L76.6072 161.569L71.312 160.87Z" fill="#E4E4E4"/>
<path d="M83.5404 162C83.0964 162.001 82.6919 161.896 82.3269 161.687C81.962 161.471 81.6722 161.137 81.4576 160.686C81.2429 160.228 81.1352 159.644 81.1344 158.935L81.1342 158.803C81.1334 158.094 81.2437 157.502 81.4651 157.027C81.6865 156.544 81.9834 156.185 82.3558 155.951C82.7282 155.709 83.1403 155.588 83.5922 155.587C83.949 155.587 84.2543 155.639 84.5082 155.743C84.7699 155.847 84.9802 155.988 85.139 156.165L85.1355 153.182L87.0026 153.18L87.0129 161.875L85.4906 161.877L85.3352 161.177C85.1611 161.426 84.9314 161.628 84.6461 161.781C84.3609 161.927 83.9923 161.999 83.5404 162ZM84.086 160.767C84.3873 160.767 84.6369 160.654 84.8348 160.428C85.0407 160.203 85.1434 159.873 85.1429 159.438L85.1413 158.133C85.1408 157.699 85.0373 157.369 84.8309 157.144C84.6324 156.918 84.3826 156.806 84.0813 156.806C83.78 156.807 83.5264 156.924 83.3205 157.157C83.1226 157.383 83.0239 157.709 83.0244 158.136L83.0259 159.44C83.0264 159.875 83.1259 160.205 83.3244 160.43C83.5308 160.655 83.7847 160.768 84.086 160.767Z" fill="#E4E4E4"/>
<path d="M94.8003 161.232C94.1015 161.331 93.5079 161.293 93.0196 161.119C92.538 160.935 92.156 160.631 91.8737 160.208C91.5992 159.784 91.4197 159.264 91.3353 158.65L91.2909 158.327C91.2032 157.69 91.2543 157.13 91.4442 156.647C91.6408 156.156 91.9549 155.762 92.3864 155.465C92.8246 155.159 93.3618 154.961 93.9978 154.871C94.5868 154.787 95.1086 154.827 95.5633 154.99C96.0248 155.144 96.3968 155.405 96.6793 155.771C96.9686 156.128 97.1511 156.582 97.2267 157.132L97.3451 157.994L93.3286 158.563L93.373 158.886C93.4333 159.324 93.5843 159.636 93.8259 159.822C94.0675 160.007 94.3611 160.075 94.7066 160.026C95.0913 159.971 95.3653 159.839 95.5286 159.629C95.6907 159.411 95.7449 159.106 95.6912 158.716L97.4109 158.472C97.4789 158.966 97.4153 159.406 97.2201 159.792C97.0327 160.176 96.7318 160.491 96.3173 160.737C95.9106 160.981 95.405 161.146 94.8003 161.232ZM93.1856 157.522L95.3882 157.21L95.3668 157.055C95.3361 156.831 95.2621 156.643 95.1449 156.489C95.0265 156.326 94.8783 156.209 94.7003 156.137C94.5301 156.064 94.339 156.042 94.1269 156.072C93.8992 156.104 93.7106 156.188 93.561 156.323C93.4104 156.45 93.3006 156.612 93.2315 156.809C93.1625 157.005 93.1428 157.211 93.1724 157.427L93.1856 157.522Z" fill="#E4E4E4"/>
<path d="M102.32 159.702L100.676 153.76L102.141 153.342L102.465 153.977C102.573 153.654 102.755 153.389 103.011 153.182C103.265 152.967 103.586 152.804 103.975 152.693C104.601 152.515 105.142 152.549 105.597 152.795C106.06 153.039 106.378 153.475 106.552 154.103L107.678 158.172L105.881 158.685L104.861 155C104.764 154.651 104.616 154.413 104.416 154.286C104.214 154.151 103.98 154.122 103.712 154.198C103.529 154.251 103.382 154.343 103.27 154.475C103.159 154.607 103.087 154.766 103.056 154.95C103.03 155.125 103.046 155.317 103.104 155.526L104.118 159.189L102.32 159.702Z" fill="#E4E4E4"/>
<path d="M115.843 155.079C115.093 155.408 114.439 155.505 113.882 155.372C113.332 155.236 112.894 154.783 112.568 154.014L111.551 151.619L110.098 152.254L109.557 150.979L111.075 150.314L110.909 148.244L111.957 147.785L112.724 149.593L115.051 148.575L115.592 149.85L113.266 150.868L114.212 153.097C114.297 153.297 114.41 153.453 114.553 153.566C114.693 153.671 114.867 153.727 115.077 153.731C115.29 153.726 115.546 153.658 115.845 153.527C116.056 153.434 116.249 153.319 116.423 153.182C116.598 153.044 116.735 152.909 116.835 152.778L117.367 154.031C117.214 154.221 116.996 154.408 116.712 154.594C116.431 154.787 116.142 154.949 115.843 155.079Z" fill="#E4E4E4"/>
<path d="M123.717 150.777L121.262 146.695L119.537 147.766L118.824 146.58L122.132 144.528L125.301 149.794L123.717 150.777ZM121.992 151.847L121.291 150.682L126.163 147.66L126.863 148.825L121.992 151.847ZM120.019 144.466L119.262 143.209L120.521 142.428L121.277 143.686L120.019 144.466Z" fill="#E4E4E4"/>
<path d="M133.548 143.879C132.912 144.398 132.307 144.669 131.735 144.692C131.17 144.71 130.628 144.392 130.112 143.739L128.503 141.706L127.27 142.712L126.413 141.63L127.701 140.578L126.997 138.628L127.887 137.901L129.101 139.436L131.076 137.824L131.932 138.907L129.958 140.518L131.455 142.41C131.59 142.58 131.74 142.7 131.908 142.77C132.07 142.833 132.253 142.839 132.456 142.787C132.66 142.724 132.889 142.589 133.142 142.382C133.321 142.236 133.477 142.072 133.609 141.892C133.741 141.712 133.838 141.545 133.899 141.392L134.741 142.456C134.644 142.68 134.483 142.92 134.258 143.175C134.038 143.437 133.802 143.672 133.548 143.879Z" fill="#E4E4E4"/>
<path d="M140.739 140.073C140.592 140.231 140.444 140.366 140.296 140.479C140.159 140.591 140.024 140.677 139.891 140.738L138.974 139.859C139.063 139.822 139.173 139.756 139.305 139.662C139.443 139.572 139.564 139.472 139.667 139.361C139.825 139.191 139.91 139.023 139.922 138.858C139.934 138.692 139.905 138.525 139.833 138.356C139.761 138.188 139.677 138.008 139.582 137.817L133.701 135.38L135.073 133.906L138.627 135.572L138.685 135.51L136.78 132.071L138.046 130.71L140.734 136.28C140.96 136.752 141.13 137.214 141.243 137.666C141.357 138.119 141.377 138.548 141.305 138.955C141.243 139.361 141.054 139.734 140.739 140.073Z" fill="#E4E4E4"/>
<path d="M151.131 122.59L143.892 118.768L144.77 117.054L148.315 118.926L145.867 114.911L146.789 113.111L149.293 116.965L154.093 116.804L153.106 118.733L149.635 118.888L150.236 119.94L152.008 120.876L151.131 122.59Z" fill="#E4E4E4"/>
<path d="M156.507 110.771L152.072 109.162L151.392 111.096L150.104 110.629L151.408 106.921L157.131 108.996L156.507 110.771ZM155.827 112.704L154.562 112.245L156.481 106.786L157.747 107.245L155.827 112.704ZM149.725 108.222L148.359 107.726L148.855 106.316L150.221 106.812L149.725 108.222Z" fill="#E4E4E4"/>
<path d="M159.879 99.1239C159.707 99.9345 159.405 100.531 158.975 100.915C158.546 101.29 157.929 101.389 157.123 101.212L154.612 100.661L154.278 102.231L152.941 101.937L153.29 100.297L151.534 99.2315L151.775 98.0983L153.67 98.5143L154.205 96L155.542 96.2935L155.007 98.8078L157.343 99.3208C157.552 99.3667 157.744 99.3634 157.917 99.3109C158.083 99.2566 158.228 99.1444 158.354 98.9743C158.473 98.7946 158.567 98.5434 158.636 98.2207C158.685 97.9925 158.704 97.7662 158.695 97.5418C158.686 97.3175 158.658 97.1259 158.611 96.9673L159.924 97.2557C159.988 97.492 160.011 97.7813 159.995 98.1238C159.987 98.4679 159.948 98.8013 159.879 99.1239Z" fill="#E4E4E4"/>
<path d="M39.3703 30L35 24.2152L37.7843 22.1013C38.0983 21.8629 38.4438 21.7245 38.8207 21.686C39.1933 21.642 39.5558 21.6896 39.9082 21.829C40.2606 21.9684 40.5557 22.1955 40.7936 22.5103L40.9019 22.6537C41.1397 22.9685 41.282 23.3204 41.3289 23.7095C41.3715 24.0929 41.3232 24.4613 41.1842 24.8145C41.0409 25.1622 40.8122 25.4552 40.4982 25.6936L39.085 26.7665L40.7414 28.959L39.3703 30ZM38.2759 25.6956L39.2938 24.9228C39.4284 24.8207 39.5228 24.7003 39.577 24.5619C39.6368 24.4191 39.6544 24.2731 39.6298 24.1237C39.6066 23.9644 39.5397 23.8117 39.4293 23.6655C39.3316 23.5362 39.2144 23.4395 39.0776 23.3752C38.9366 23.3054 38.7901 23.275 38.6382 23.2842C38.4863 23.2934 38.3375 23.3533 38.1917 23.464L37.1738 24.2368L38.2759 25.6956Z" fill="#E4E4E4"/>
<path d="M49.7391 23.0998C49.3763 23.3019 49.0104 23.4331 48.6415 23.4934C48.2753 23.5441 47.9169 23.5219 47.5664 23.4267C47.2185 23.322 46.8909 23.1374 46.5834 22.8731C46.2786 22.5991 46.0032 22.2403 45.7572 21.7964L45.1268 20.6591C44.8773 20.2091 44.7218 19.7835 44.6603 19.3821C44.5954 18.9746 44.6103 18.5951 44.7053 18.2437C44.8002 17.8923 44.9676 17.5772 45.2074 17.2984C45.4533 17.0162 45.7577 16.774 46.1205 16.5719L46.3695 16.4332C46.7323 16.2311 47.0968 16.1046 47.463 16.0539C47.832 15.9936 48.1904 16.0158 48.5382 16.1206C48.8825 16.2192 49.2102 16.4037 49.5211 16.6743C49.8286 16.9386 50.1071 17.2958 50.3565 17.7458L50.987 18.8831C51.233 19.3269 51.3885 19.7526 51.4534 20.1601C51.515 20.5615 51.4983 20.9379 51.4033 21.2893C51.305 21.6345 51.1376 21.9496 50.9012 22.2346C50.6614 22.5134 50.3571 22.7555 49.9881 22.9611L49.7391 23.0998ZM49.2081 21.8587C49.3618 21.7731 49.4882 21.6744 49.5872 21.5628C49.6925 21.4477 49.7638 21.3151 49.8014 21.1651C49.8451 21.0117 49.8489 20.8442 49.8126 20.6627C49.7791 20.4716 49.6992 20.262 49.5727 20.0339L48.6194 18.3141C48.493 18.0861 48.3594 17.9104 48.2186 17.7871C48.084 17.6604 47.9401 17.5752 47.7871 17.5313C47.6402 17.4841 47.4902 17.4749 47.3371 17.5036C47.1902 17.529 47.0399 17.5845 46.8862 17.6701C46.7386 17.7523 46.6122 17.851 46.507 17.9661C46.408 18.0777 46.3397 18.2086 46.3021 18.3586C46.2645 18.5086 46.2608 18.6761 46.2909 18.861C46.3271 19.0425 46.4084 19.2473 46.5349 19.4754L47.4882 21.1952C47.6146 21.4233 47.7469 21.6037 47.8849 21.7366C48.0257 21.8599 48.1695 21.9451 48.3164 21.9924C48.4633 22.0396 48.6102 22.0506 48.7571 22.0252C48.9102 21.9964 49.0605 21.9409 49.2081 21.8587Z" fill="#E4E4E4"/>
<path d="M56.82 19.4935L53.4736 13.0036L54.8458 12.4842L57.0038 16.5973L57.0433 16.5823L55.981 12.0546L57.057 11.6473L59.2447 15.7492L59.2842 15.7342L58.1824 11.2214L59.3967 10.7619L61.1735 17.8459L59.5446 18.4623L57.5245 14.7155L57.485 14.7304L58.4488 18.877L56.82 19.4935Z" fill="#E4E4E4"/>
<path d="M66.4056 16.2861L64.8834 9.19182L69.7939 8.13304L69.89 9.48645L66.8571 10.1404L67.181 11.6503L70.0179 11.0386L70.293 12.3209L67.4561 12.9326L67.8045 14.5562L70.8684 13.8956L71.3366 15.2229L66.4056 16.2861Z" fill="#E4E4E4"/>
<path d="M81.3665 14.2921C81.1067 14.3073 80.8762 14.282 80.675 14.216C80.4735 14.1431 80.3107 14.0113 80.1869 13.8208C80.0701 13.6299 80.0014 13.3584 79.9809 13.0064C79.9685 12.7952 79.9362 12.6028 79.8838 12.4293C79.838 12.2483 79.7691 12.0934 79.677 11.9646C79.5849 11.8358 79.4699 11.7365 79.332 11.6669C79.1936 11.5903 79.0296 11.5575 78.84 11.5686L77.9341 11.6217L78.096 14.399L76.379 14.4996L75.9566 7.25541L79.338 7.05726C79.7664 7.03216 80.1503 7.0909 80.4898 7.23348C80.8293 7.37605 81.0988 7.58631 81.2982 7.86426C81.4976 8.1422 81.6086 8.47477 81.6312 8.86197C81.6583 9.32661 81.5654 9.72764 81.3526 10.0651C81.1393 10.3954 80.842 10.6142 80.4607 10.7213L80.4637 10.7741C80.7277 10.8293 80.9491 10.9399 81.1279 11.106C81.3067 11.2722 81.4415 11.4691 81.5323 11.6969C81.6301 11.9243 81.6862 12.1612 81.7005 12.4076C81.7268 12.8582 81.7841 13.1762 81.8725 13.3618C81.9678 13.5469 82.1154 13.6619 82.3154 13.7067L82.3369 14.0763C82.1997 14.1408 82.044 14.1888 81.8697 14.2202C81.7028 14.2583 81.535 14.2822 81.3665 14.2921ZM77.8577 10.3122L79.0481 10.2425C79.3781 10.2231 79.6116 10.1176 79.7484 9.92595C79.8922 9.73385 79.9565 9.50757 79.9413 9.24709C79.9266 8.99365 79.8405 8.78677 79.6832 8.62645C79.5259 8.46613 79.2927 8.39503 78.9837 8.41313L77.7512 8.48535L77.8577 10.3122Z" fill="#E4E4E4"/>
<path d="M86.5228 14.2322L87.1152 7L92.1211 7.41209L91.8221 8.73541L88.7302 8.48089L88.6042 10.0201L91.4962 10.2582L91.3891 11.5655L88.4971 11.3274L88.3615 12.9826L91.4849 13.2397L91.5497 14.646L86.5228 14.2322Z" fill="#E4E4E4"/>
<path d="M96.4902 15.4056L98.1536 8.34328L100.844 8.98015C101.248 9.07577 101.608 9.21899 101.925 9.40984C102.248 9.6023 102.511 9.83832 102.712 10.1179C102.914 10.3975 103.048 10.719 103.114 11.0825C103.182 11.4391 103.165 11.8302 103.065 12.2557L102.629 14.1088C102.53 14.5274 102.37 14.8845 102.149 15.1799C101.929 15.4684 101.667 15.6925 101.362 15.8522C101.056 16.0119 100.716 16.1087 100.339 16.1427C99.9708 16.1715 99.5848 16.1381 99.1808 16.0425L96.4902 15.4056ZM98.5259 14.4962L99.3474 14.6907C99.6007 14.7507 99.8287 14.7648 100.031 14.733C100.234 14.7013 100.403 14.611 100.54 14.4621C100.683 14.3148 100.79 14.0902 100.861 13.7882L101.344 11.7395C101.415 11.4375 101.419 11.1886 101.357 10.9927C101.303 10.7915 101.193 10.6314 101.026 10.5121C100.858 10.3929 100.648 10.3032 100.395 10.2433L99.5734 10.0488L98.5259 14.4962Z" fill="#E4E4E4"/>
<path d="M115.513 22.092L119.125 15.8032L122.06 17.4973C122.401 17.6943 122.657 17.9274 122.827 18.1965C122.998 18.4655 123.083 18.7549 123.084 19.0645C123.088 19.3681 123.004 19.6696 122.832 19.9691C122.653 20.2807 122.451 20.5058 122.225 20.6441C122.009 20.7799 121.785 20.8535 121.551 20.865C121.323 20.88 121.099 20.8605 120.878 20.8064L120.852 20.8523C120.981 20.9673 121.099 21.1006 121.206 21.2523C121.314 21.4039 121.394 21.5761 121.446 21.7687C121.507 21.9587 121.52 22.1695 121.484 22.4012C121.452 22.6268 121.359 22.874 121.204 23.1429C121.018 23.4668 120.778 23.7149 120.485 23.8872C120.195 24.0533 119.876 24.1341 119.53 24.1294C119.193 24.1222 118.851 24.0184 118.503 23.8178L115.513 22.092ZM117.577 21.7208L118.747 22.3963C118.9 22.4843 119.047 22.5246 119.189 22.5171C119.335 22.5036 119.466 22.4529 119.581 22.3649C119.703 22.2804 119.8 22.174 119.874 22.0457C119.969 21.8807 120.017 21.7256 120.02 21.5804C120.022 21.4352 119.984 21.3034 119.906 21.1851C119.834 21.0703 119.734 20.9759 119.606 20.902L118.435 20.2265L117.577 21.7208ZM119.062 19.1356L120.132 19.7531C120.266 19.8305 120.397 19.8698 120.526 19.8711C120.665 19.8698 120.794 19.83 120.912 19.7516C121.033 19.6672 121.136 19.5516 121.22 19.4049C121.361 19.1605 121.404 18.9498 121.352 18.7729C121.309 18.5935 121.19 18.4475 120.995 18.3349L119.888 17.6963L119.062 19.1356Z" fill="#E4E4E4"/>
<path d="M125.418 28.4858L126.995 26.472L128.144 21.4059L129.597 22.5487L128.872 25.5821L128.905 25.6083L131.622 24.1422L133 25.2263L128.373 27.5561L126.796 29.5699L125.418 28.4858Z" fill="#E4E4E4"/>
<defs>
<clipPath id="clip0_378_276">
<rect width="115.46" height="69.1765" fill="white" transform="translate(26.3525 49.4121)"/>
</clipPath>
</defs>
</svg>
