<svg width="194" height="201" viewBox="0 0 194 201" fill="none" xmlns="http://www.w3.org/2000/svg">
<path d="M53.6392 21L49 12.2741L52.5531 10.5007C53.2361 10.1598 53.8852 9.9957 54.5004 10.0085C55.1141 10.0185 55.6656 10.1836 56.1547 10.5037C56.6454 10.8195 57.0447 11.2672 57.3528 11.8466C57.6608 12.4261 57.8037 13.0017 57.7813 13.5736C57.7589 14.1455 57.5686 14.6771 57.2104 15.1686C56.8552 15.6586 56.3316 16.0763 55.6398 16.4216L53.3751 17.552L52.5891 16.0735L54.5459 15.0968C54.9124 14.9139 55.1819 14.7021 55.3544 14.4615C55.5283 14.2165 55.6158 13.9554 55.6168 13.6781C55.6192 13.3966 55.5441 13.1124 55.3916 12.8255C55.2375 12.5358 55.043 12.313 54.8081 12.1571C54.5745 11.9969 54.3058 11.9171 54.002 11.9178C53.6967 11.9157 53.3594 12.0068 52.99 12.1911L51.7059 12.832L55.5433 20.0496L53.6392 21Z" fill="#333333"/>
<path d="M68.5889 9.21646C68.9828 10.2165 69.1223 11.1396 69.0073 11.9858C68.8955 12.8309 68.5767 13.5627 68.0508 14.1812C67.5269 14.7956 66.8474 15.2572 66.0125 15.5659C65.1714 15.877 64.3437 15.971 63.5293 15.8481C62.715 15.7252 61.9756 15.3847 61.311 14.8267C60.6465 14.2688 60.1179 13.4913 59.7251 12.4942C59.3312 11.4942 59.1902 10.5716 59.3021 9.72656C59.414 8.88149 59.7319 8.15176 60.2557 7.53737C60.7785 6.91998 61.4604 6.45578 62.3016 6.14473C63.1365 5.83599 63.9611 5.74308 64.7755 5.866C65.5918 5.98481 66.3322 6.3232 66.9966 6.88119C67.6643 7.43799 68.195 8.21643 68.5889 9.21646ZM66.5601 9.96669C66.305 9.31891 65.9897 8.80963 65.6142 8.4389C65.2419 8.06702 64.8302 7.8328 64.3791 7.73625C63.9281 7.63969 63.4607 7.68085 62.9771 7.85971C62.4934 8.03858 62.1165 8.3096 61.8466 8.67277C61.5767 9.0359 61.4292 9.47691 61.4041 9.99576C61.3822 10.5135 61.4988 11.0962 61.7539 11.744C62.0091 12.3918 62.3228 12.9016 62.6952 13.2735C63.0707 13.6442 63.4839 13.8778 63.9349 13.9744C64.3859 14.071 64.8533 14.0298 65.337 13.8509C65.8207 13.6721 66.1975 13.4011 66.4674 13.0379C66.7374 12.6747 66.8833 12.2343 66.9053 11.7166C66.9304 11.1978 66.8153 10.6145 66.5601 9.96669Z" fill="#333333"/>
<path d="M73.7742 12.8568L68.6931 3.91269L70.9742 3.40805L74.1759 9.69539L74.2578 9.67726L74.4945 2.62922L76.4476 2.19713L79.8165 8.46222L79.9034 8.443L79.9679 1.41831L82.2489 0.913664L81.6781 11.1082L79.643 11.5584L76.2879 5.718L76.2107 5.73507L75.8092 12.4066L73.7742 12.8568Z" fill="#333333"/>
<path d="M85.7019 10.525L84.7636 0.751621L91.5605 0.139026L91.724 1.8427L87.0599 2.26308L87.2834 4.5919L91.5979 4.20304L91.7614 5.90671L87.447 6.29557L87.671 8.62917L92.3549 8.20701L92.5185 9.91068L85.7019 10.525Z" fill="#333333"/>
<path d="M94.2138 9.81498L94.3289 0L98.3254 0.0439993C99.0904 0.0524217 99.7418 0.192201 100.279 0.463336C100.82 0.731317 101.23 1.10809 101.508 1.59365C101.789 2.07606 101.926 2.64155 101.918 3.29014C101.911 3.94191 101.759 4.50103 101.463 4.9675C101.168 5.43077 100.743 5.78398 100.189 6.02713C99.6391 6.27031 98.9749 6.38762 98.1967 6.37905L95.5208 6.34959L95.5403 4.68181L97.87 4.70746C98.2789 4.71196 98.6192 4.66139 98.8909 4.55573C99.1625 4.45008 99.3656 4.28935 99.5 4.07354C99.6378 3.85777 99.7086 3.58854 99.7123 3.26585C99.7162 2.93996 99.6518 2.66444 99.5192 2.43931C99.3899 2.21421 99.1891 2.04264 98.9168 1.92461C98.6477 1.80341 98.3072 1.74055 97.895 1.73601L96.4507 1.72011L96.3555 9.83856L94.2138 9.81498ZM99.7367 5.40863L102.202 9.90293L99.8376 9.8769L97.4268 5.38319L99.7367 5.40863Z" fill="#333333"/>
<path d="M103.372 9.99875L104.479 0.241906L111.264 0.964604L111.071 2.66538L106.415 2.16945L106.151 4.49432L110.458 4.95307L110.265 6.65385L105.958 6.1951L105.694 8.52474L110.37 9.02277L110.177 10.7235L103.372 9.99875Z" fill="#333333"/>
<path d="M115.375 11.697L111.868 10.9486L114.047 1.36269L117.583 2.11725C118.578 2.3296 119.391 2.70431 120.022 3.24136C120.654 3.77531 121.082 4.44079 121.306 5.23783C121.533 6.03556 121.534 6.93213 121.307 7.92755C121.08 8.92608 120.69 9.7426 120.138 10.3771C119.588 11.0124 118.907 11.4446 118.095 11.6738C117.287 11.9036 116.38 11.9114 115.375 11.697ZM114.355 9.65844L115.683 9.94193C116.301 10.0739 116.846 10.0788 117.316 9.95657C117.79 9.83198 118.184 9.56767 118.499 9.1637C118.817 8.7573 119.058 8.1968 119.22 7.48223C119.381 6.77389 119.405 6.17204 119.291 5.67666C119.181 5.18197 118.939 4.7835 118.565 4.48129C118.192 4.17907 117.696 3.962 117.077 3.83005L115.744 3.54554L114.355 9.65844Z" fill="#333333"/>
<path d="M124.847 14.1012L128.463 4.93216L132.251 6.33475C132.947 6.59248 133.489 6.90756 133.875 7.27976C134.262 7.65195 134.501 8.05888 134.596 8.50077C134.691 8.93968 134.648 9.38896 134.467 9.84861C134.325 10.2068 134.127 10.4942 133.872 10.7111C133.619 10.9251 133.328 11.0706 133.001 11.148C132.679 11.2235 132.338 11.236 131.98 11.1855L131.945 11.2751C132.299 11.4234 132.598 11.6469 132.841 11.9453C133.086 12.2447 133.243 12.5953 133.31 12.9966C133.379 13.3949 133.324 13.8193 133.147 14.27C132.955 14.7565 132.658 15.1445 132.259 15.4343C131.863 15.7221 131.379 15.8869 130.809 15.9288C130.238 15.9705 129.598 15.8603 128.89 15.598L124.847 14.1012ZM127.472 13.257L129.104 13.8609C129.661 14.0673 130.108 14.1148 130.445 14.0035C130.783 13.8893 131.02 13.659 131.157 13.3127C131.257 13.059 131.282 12.8118 131.232 12.5711C131.183 12.3303 131.062 12.1114 130.872 11.9142C130.684 11.7183 130.43 11.5609 130.11 11.4424L128.433 10.8215L127.472 13.257ZM128.95 9.50969L130.434 10.0589C130.708 10.1603 130.969 10.2041 131.218 10.1903C131.471 10.1746 131.694 10.1031 131.885 9.97552C132.08 9.84914 132.225 9.66506 132.32 9.4233C132.451 9.092 132.434 8.77982 132.271 8.48678C132.111 8.19494 131.809 7.96676 131.365 7.80248L129.845 7.23981L128.95 9.50969Z" fill="#333333"/>
<path d="M137.526 8.34693L139.662 9.40506L139.733 14.1876L139.821 14.2312L143.864 11.486L146 12.5441L139.729 16.5646L138.099 19.6543L136.205 18.7163L137.835 15.6266L137.526 8.34693Z" fill="#333333"/>
<path d="M0 130.357L11.554 126L14.5662 134.046L12.3133 134.549L10.4528 129.579L7.99378 130.506L9.73401 135.155L7.64553 135.942L5.9053 131.294L3.26103 132.291L5.14047 137.311L3.02484 138.437L0 130.357Z" fill="#333333"/>
<path d="M7.07651 147.133C6.50855 146.032 6.29368 145.052 6.4319 144.194C6.57564 143.347 7.20142 142.636 8.30924 142.06L11.7605 140.267L10.6605 138.134L12.4979 137.18L13.6477 139.409L16.707 138.937L17.5011 140.477L14.8966 141.83L16.6584 145.246L14.8209 146.2L13.0591 142.785L9.8475 144.453C9.55989 144.603 9.33989 144.792 9.18751 145.02C9.04577 145.243 8.98249 145.513 8.99765 145.83C9.02899 146.153 9.15769 146.533 9.38377 146.972C9.54368 147.282 9.73536 147.562 9.95881 147.811C10.1823 148.061 10.3969 148.255 10.6026 148.392L8.79711 149.33C8.4991 149.119 8.19701 148.808 7.89085 148.398C7.57404 147.993 7.30259 147.572 7.07651 147.133Z" fill="#333333"/>
<path d="M10.4657 152.759L21.1535 145.412L22.7497 147.751L18.7121 150.526C19.2446 150.54 19.7219 150.664 20.1441 150.899C20.5829 151.137 20.9649 151.495 21.2903 151.971C21.6224 152.458 21.8149 152.953 21.8678 153.457C21.9206 153.96 21.8268 154.441 21.5863 154.898C21.3625 155.358 20.9834 155.772 20.449 156.139L15.2238 159.731L13.6276 157.392L18.4075 154.106C18.8132 153.827 19.0571 153.514 19.1393 153.166C19.2215 152.817 19.1439 152.469 18.9067 152.122C18.7508 151.893 18.5574 151.727 18.3266 151.623C18.0957 151.519 17.8524 151.482 17.5966 151.512C17.3408 151.542 17.0892 151.642 16.8417 151.812L12.0619 155.098L10.4657 152.759Z" fill="#333333"/>
<path d="M20.3146 166.174C19.6098 165.369 19.163 164.585 18.974 163.822C18.8019 163.06 18.8618 162.326 19.1536 161.62C19.4533 160.923 19.95 160.269 20.6438 159.657L21.0086 159.335C21.7294 158.699 22.4687 158.303 23.2267 158.147C24.0015 157.993 24.7532 158.067 25.4816 158.37C26.227 158.674 26.9204 159.192 27.5618 159.925C28.1557 160.603 28.5404 161.298 28.7157 162.008C28.908 162.72 28.8937 163.406 28.6729 164.066C28.469 164.726 28.0562 165.331 27.4346 165.879L26.4615 166.737L22.4112 162.112L22.0463 162.434C21.5508 162.871 21.2883 163.319 21.2588 163.778C21.2294 164.237 21.3889 164.665 21.7373 165.063C22.1253 165.506 22.5179 165.745 22.9152 165.779C23.3215 165.805 23.7453 165.624 24.1868 165.234L25.921 167.214C25.3624 167.707 24.7622 167.988 24.1203 168.058C23.4863 168.136 22.844 168.013 22.1933 167.69C21.5506 167.375 20.9243 166.87 20.3146 166.174ZM23.5869 161.075L25.8081 163.612L25.9837 163.457C26.236 163.234 26.4092 162.985 26.5034 162.71C26.6066 162.426 26.6291 162.142 26.5709 161.857C26.5206 161.581 26.3886 161.32 26.1748 161.076C25.9452 160.814 25.6841 160.644 25.3917 160.565C25.1083 160.478 24.8155 160.472 24.5132 160.547C24.211 160.621 23.9382 160.765 23.695 160.98L23.5869 161.075Z" fill="#333333"/>
<path d="M27.193 173.095L31.9239 167.748L30.4978 166.477L31.8717 164.924L35.0198 167.73L34.3374 168.691C34.7358 168.531 35.1756 168.496 35.6567 168.587C36.1459 168.669 36.6236 168.918 37.09 169.333C37.7089 169.885 38.0294 170.492 38.0517 171.156C38.0829 171.828 37.8357 172.461 37.31 173.055C37.1826 173.199 37.0507 173.339 36.9143 173.475C36.7948 173.61 36.6539 173.742 36.4916 173.871L34.7427 172.313L35.0652 171.948C35.2086 171.786 35.3041 171.605 35.3518 171.407C35.4165 171.207 35.4174 171.006 35.3545 170.805C35.3006 170.612 35.1795 170.432 34.9912 170.264C34.8028 170.096 34.5976 170.002 34.3754 169.981C34.1533 169.96 33.9347 169.999 33.7195 170.097C33.5124 170.186 33.3252 170.325 33.1579 170.514L29.2514 174.929L27.193 173.095ZM25.7401 171.8L27.09 170.274L33.1979 175.717L31.8479 177.243L25.7401 171.8Z" fill="#333333"/>
<path d="M38.7912 182.689C37.9145 182.078 37.2932 181.425 36.9272 180.73C36.5779 180.032 36.4604 179.305 36.5748 178.549C36.6989 177.8 37.0245 177.045 37.5516 176.284L37.8288 175.883C38.3763 175.092 38.9994 174.53 39.6979 174.196C40.4131 173.859 41.1605 173.75 41.9401 173.869C42.7365 173.984 43.5336 174.32 44.3315 174.877C45.0702 175.392 45.6097 175.974 45.9499 176.621C46.3068 177.266 46.457 177.935 46.4004 178.629C46.3606 179.319 46.1045 180.005 45.6322 180.688L44.893 181.755L39.8548 178.242L39.5776 178.642C39.2011 179.186 39.0535 179.684 39.1346 180.136C39.2158 180.589 39.4731 180.966 39.9065 181.268C40.3891 181.605 40.8274 181.742 41.2212 181.679C41.6219 181.607 41.9898 181.328 42.3251 180.844L44.4823 182.348C44.058 182.961 43.5425 183.379 42.936 183.601C42.3394 183.83 41.6865 183.866 40.9775 183.708C40.2784 183.558 39.5496 183.218 38.7912 182.689ZM40.748 176.952L43.511 178.878L43.6444 178.686C43.8361 178.409 43.9447 178.125 43.9702 177.835C44.0026 177.535 43.9564 177.254 43.8317 176.991C43.7168 176.735 43.5264 176.514 43.2605 176.329C42.9748 176.13 42.6806 176.027 42.378 176.021C42.0821 176.006 41.7964 176.07 41.5208 176.215C41.2451 176.36 41.0149 176.566 40.8301 176.833L40.748 176.952Z" fill="#333333"/>
<path d="M48.3396 188.599C47.4784 188.148 46.9149 187.553 46.6489 186.816C46.3937 186.085 46.5104 185.25 46.9991 184.311L49.8733 178.789L52.393 180.11L49.7187 185.248C49.4743 185.717 49.4055 186.122 49.5121 186.464C49.6349 186.8 49.877 187.062 50.2385 187.252C50.4937 187.386 50.7447 187.449 50.9916 187.443C51.2547 187.432 51.4949 187.347 51.7123 187.189C51.9403 187.037 52.1293 186.817 52.2793 186.529L54.9286 181.439L57.4323 182.752L54.1665 189.026C54.0832 189.186 54.054 189.32 54.0789 189.429C54.12 189.532 54.1937 189.611 54.3 189.667C54.3744 189.706 54.4516 189.739 54.5316 189.768C54.6171 189.785 54.7163 189.79 54.8291 189.781L54.0877 191.206C53.8995 191.229 53.6533 191.195 53.3491 191.104C53.05 191.028 52.7782 190.926 52.5337 190.798C52.0978 190.57 51.7879 190.346 51.604 190.127C51.4201 189.909 51.3219 189.694 51.3096 189.484C51.3134 189.269 51.3468 189.049 51.4098 188.824C51.166 188.954 50.8962 189.043 50.6003 189.092C50.315 189.146 49.9878 189.137 49.6189 189.066C49.2444 189.006 48.818 188.85 48.3396 188.599Z" fill="#333333"/>
<path d="M56.331 192.415L59.6058 183.792L61.018 184.333L60.8969 185.311C61.2268 185.05 61.5829 184.89 61.9651 184.83C62.3515 184.759 62.7241 184.792 63.0827 184.929C63.4974 185.088 63.8064 185.322 64.0097 185.632C64.2285 185.935 64.3376 186.273 64.337 186.646C64.7245 186.369 65.1017 186.204 65.4684 186.151C65.8394 186.087 66.221 186.13 66.6133 186.28C67.2409 186.52 67.6292 186.901 67.778 187.421C67.9311 187.931 67.8816 188.517 67.6295 189.181L65.1237 195.778L63.0054 194.968L65.2933 188.944C65.4855 188.438 65.3855 188.11 64.9932 187.96C64.8139 187.891 64.637 187.901 64.4624 187.989C64.2878 188.077 64.1557 188.239 64.066 188.475L61.7781 194.499L59.6934 193.701L61.9813 187.677C62.1735 187.171 62.0679 186.841 61.6644 186.686C61.4739 186.613 61.2914 186.621 61.1168 186.709C60.9535 186.801 60.8269 186.965 60.7372 187.201L58.4493 193.225L56.331 192.415Z" fill="#333333"/>
<path d="M80.6657 199.565L80.9311 197.396L83.449 197.707L84.4248 189.731L81.9069 189.421L82.17 187.27L90.1882 188.258L89.9251 190.409L87.4071 190.099L86.4313 198.074L88.9493 198.385L88.684 200.553L80.6657 199.565Z" fill="#333333"/>
<path d="M95.8739 201C95.2022 200.997 94.5912 200.838 94.0408 200.522C93.4904 200.195 93.0548 199.693 92.7339 199.018C92.4131 198.33 92.2549 197.457 92.2596 196.397L92.2604 196.199C92.2651 195.139 92.4369 194.255 92.7758 193.547C93.1148 192.826 93.567 192.292 94.1322 191.945C94.6976 191.587 95.3221 191.409 96.0058 191.412C96.5455 191.414 97.007 191.495 97.3901 191.653C97.7853 191.811 98.1022 192.023 98.3409 192.289L98.3604 187.829L101.185 187.841L101.128 200.842L98.8254 200.832L98.5961 199.784C98.3306 200.156 97.9814 200.455 97.5486 200.682C97.1158 200.897 96.5576 201.003 95.8739 201ZM96.7096 199.162C97.1654 199.164 97.544 198.997 97.8453 198.661C98.1586 198.325 98.3167 197.833 98.3195 197.182L98.3281 195.232C98.3309 194.582 98.1771 194.088 97.8667 193.749C97.5684 193.411 97.1913 193.241 96.7355 193.239C96.2797 193.237 95.8951 193.41 95.5817 193.758C95.2803 194.093 95.1283 194.58 95.1255 195.218L95.117 197.168C95.1142 197.818 95.2619 198.313 95.5603 198.651C95.8707 198.99 96.2538 199.16 96.7096 199.162Z" fill="#333333"/>
<path d="M109.44 200.26C108.38 200.387 107.483 200.314 106.749 200.038C106.026 199.75 105.457 199.285 105.042 198.644C104.639 198.001 104.382 197.22 104.272 196.3L104.214 195.816C104.1 194.859 104.193 194.024 104.494 193.308C104.805 192.58 105.291 192 105.953 191.568C106.624 191.123 107.442 190.843 108.407 190.727C109.3 190.619 110.088 190.694 110.771 190.951C111.465 191.194 112.02 191.594 112.437 192.15C112.865 192.693 113.128 193.376 113.226 194.201L113.381 195.492L107.29 196.227L107.348 196.711C107.426 197.368 107.646 197.839 108.006 198.123C108.366 198.407 108.808 198.517 109.332 198.454C109.916 198.383 110.334 198.194 110.587 197.884C110.838 197.563 110.929 197.109 110.859 196.524L113.467 196.209C113.556 196.95 113.447 197.606 113.141 198.176C112.846 198.745 112.382 199.207 111.748 199.563C111.126 199.917 110.357 200.149 109.44 200.26ZM107.103 194.667L110.443 194.264L110.415 194.031C110.375 193.696 110.269 193.412 110.096 193.178C109.921 192.933 109.701 192.753 109.433 192.64C109.178 192.525 108.89 192.487 108.568 192.526C108.223 192.568 107.935 192.687 107.705 192.885C107.473 193.07 107.303 193.309 107.193 193.601C107.083 193.893 107.047 194.201 107.086 194.523L107.103 194.667Z" fill="#333333"/>
<path d="M117.49 198.858L115.291 189.898L117.527 189.345L117.986 190.31C118.165 189.832 118.453 189.445 118.85 189.148C119.244 188.84 119.738 188.613 120.332 188.466C121.287 188.23 122.102 188.307 122.779 188.698C123.467 189.086 123.927 189.753 124.16 190.7L125.666 196.836L122.923 197.515L121.559 191.956C121.43 191.43 121.217 191.068 120.921 190.868C120.622 190.657 120.269 190.601 119.861 190.702C119.582 190.771 119.354 190.902 119.179 191.094C119.004 191.286 118.888 191.519 118.832 191.794C118.785 192.053 118.8 192.341 118.877 192.657L120.233 198.18L117.49 198.858Z" fill="#333333"/>
<path d="M134.982 193.743C133.826 194.181 132.832 194.281 131.999 194.043C131.177 193.801 130.546 193.095 130.105 191.924L128.732 188.275L126.493 189.123L125.762 187.181L128.102 186.294L127.992 183.189L129.607 182.577L130.644 185.33L134.229 183.972L134.96 185.914L131.375 187.273L132.652 190.669C132.767 190.973 132.928 191.214 133.136 191.392C133.34 191.56 133.6 191.654 133.916 191.676C134.239 191.682 134.63 191.598 135.091 191.424C135.416 191.3 135.715 191.142 135.989 190.948C136.262 190.755 136.478 190.563 136.638 190.374L137.356 192.283C137.113 192.555 136.77 192.82 136.328 193.078C135.891 193.347 135.442 193.568 134.982 193.743Z" fill="#333333"/>
<path d="M143.959 189.434L140.617 183.118L137.916 184.558L136.945 182.724L142.125 179.963L146.438 188.112L143.959 189.434ZM141.258 190.874L140.304 189.071L147.931 185.006L148.885 186.808L141.258 190.874ZM138.939 179.678L137.909 177.732L139.88 176.682L140.909 178.628L138.939 179.678Z" fill="#333333"/>
<path d="M156.704 181.839C155.687 182.542 154.745 182.879 153.88 182.849C153.024 182.813 152.242 182.279 151.535 181.248L149.329 178.036L147.359 179.399L146.184 177.69L148.244 176.265L147.394 173.278L148.816 172.294L150.481 174.718L153.636 172.535L154.81 174.245L151.655 176.428L153.707 179.416C153.891 179.684 154.105 179.879 154.35 180.002C154.588 180.115 154.863 180.144 155.175 180.089C155.49 180.018 155.85 179.842 156.255 179.562C156.541 179.364 156.794 179.138 157.013 178.884C157.232 178.63 157.396 178.392 157.506 178.17L158.66 179.85C158.488 180.173 158.219 180.513 157.852 180.869C157.492 181.235 157.109 181.559 156.704 181.839Z" fill="#333333"/>
<path d="M165.261 179.199C165.019 179.415 164.779 179.597 164.541 179.744C164.319 179.893 164.105 180.004 163.896 180.077L162.63 178.645C162.769 178.602 162.944 178.519 163.155 178.395C163.374 178.28 163.569 178.147 163.74 177.995C164 177.763 164.15 177.525 164.19 177.28C164.23 177.035 164.207 176.782 164.121 176.521C164.034 176.26 163.932 175.981 163.813 175.684L155.269 171.271L157.53 169.257L162.669 172.213L162.763 172.129L160.343 166.753L162.429 164.895L165.75 173.549C166.03 174.282 166.225 174.993 166.337 175.682C166.449 176.371 166.424 177.013 166.261 177.609C166.115 178.206 165.782 178.736 165.261 179.199Z" fill="#333333"/>
<path d="M178.855 160.028L168.652 153.058L170.271 150.67L175.269 154.084L172.296 147.684L173.997 145.176L177.082 151.346L184.322 151.967L182.5 154.654L177.259 154.263L177.976 155.933L180.475 157.64L178.855 160.028Z" fill="#333333"/>
<path d="M187.341 146.449L181.009 143.17L179.607 145.898L177.768 144.946L180.457 139.715L188.628 143.945L187.341 146.449ZM185.939 149.177L184.132 148.241L188.091 140.538L189.898 141.474L185.939 149.177ZM177.677 141.303L175.726 140.293L176.749 138.303L178.7 139.313L177.677 141.303Z" fill="#333333"/>
<path d="M193.503 132.912C193.067 134.072 192.485 134.887 191.757 135.358C191.033 135.817 190.088 135.826 188.92 135.384L185.284 134.007L184.44 136.254L182.504 135.521L183.387 133.172L180.992 131.204L181.602 129.582L184.346 130.621L185.698 127.022L187.634 127.756L186.281 131.354L189.665 132.635C189.968 132.75 190.255 132.788 190.526 132.749C190.786 132.706 191.028 132.573 191.253 132.349C191.472 132.11 191.667 131.76 191.841 131.298C191.964 130.971 192.043 130.641 192.079 130.307C192.115 129.973 192.114 129.684 192.078 129.438L193.981 130.159C194.023 130.522 193.995 130.956 193.896 131.458C193.808 131.965 193.677 132.45 193.503 132.912Z" fill="#333333"/>
<rect x="13" y="14" width="168" height="168" rx="84" fill="#333333"/>
<g clip-path="url(#clip0_292_2502)">
<path d="M39.3525 98.7782L59.0826 66.0664L78.6687 98.7782L59.0826 110.687L39.3525 98.7782Z" fill="#E4E4E4"/>
<path d="M59.0826 114.274L39.3525 102.365L59.0826 130.056L78.6687 102.365L59.0826 114.274Z" fill="#E4E4E4"/>
<path d="M89.5742 117.991V110.965H97.7609V85.1276H89.5742V78.1602H115.644V85.1276H107.457V110.965H115.644V117.991H89.5742ZM123.111 117.991V78.1602H138.323C140.607 78.1602 142.717 78.4698 144.652 79.0891C146.626 79.7085 148.329 80.6374 149.762 81.8761C151.194 83.1148 152.316 84.6631 153.129 86.5211C153.942 88.3404 154.348 90.4498 154.348 92.8498V103.301C154.348 105.662 153.942 107.772 153.129 109.63C152.316 111.449 151.194 112.978 149.762 114.217C148.329 115.455 146.626 116.403 144.652 117.062C142.717 117.681 140.607 117.991 138.323 117.991H123.111ZM132.866 110.559H137.511C138.943 110.559 140.181 110.346 141.226 109.92C142.272 109.494 143.065 108.797 143.607 107.83C144.188 106.862 144.478 105.527 144.478 103.823V92.2692C144.478 90.566 144.188 89.2305 143.607 88.2629C143.065 87.2564 142.272 86.5405 141.226 86.1146C140.181 85.6888 138.943 85.4759 137.511 85.4759H132.866V110.559Z" fill="#E4E4E4"/>
</g>
<defs>
<clipPath id="clip0_292_2502">
<rect width="115.46" height="69.1765" fill="white" transform="translate(39.3525 63.4121)"/>
</clipPath>
</defs>
</svg>
